/* XPM */
static char * btn_once_xpm[] = {
"32 32 4 1",
" 	c #0000FFFFFFFF",
".	c #A7A7A7A7A7A7",
"X	c #000000000000",
"o	c #F7F7F7F7F7F7",
"                                ",
"                                ",
"                                ",
"                                ",
"                                ",
"                                ",
"                                ",
"      .........   .             ",
"      .XXXXXXXo   ..            ",
"      .XXXXXXXo   .X.           ",
"      .XXXXXXXo   .XX.          ",
"      .XXXXXXXo   .XXX.         ",
"      .XXXXXXXo   .XXXX.        ",
"      .XXXXXXXo   .XXXXX.       ",
"      .XXXXXXXo   .XXXXXX.      ",
"      .XXXXXXXo   .XXXXXXX.     ",
"      .XXXXXXXo   .XXXXXXXX.    ",
"      .XXXXXXXo   .XXXXXXXo     ",
"      .XXXXXXXo   .XXXXXXo      ",
"      .XXXXXXXo   .XXXXXo       ",
"      .XXXXXXXo   .XXXXo        ",
"      .XXXXXXXo   .XXXo         ",
"      .XXXXXXXo   .XXo          ",
"      .XXXXXXXo   .Xo           ",
"      .XXXXXXXo   .o            ",
"      .oooooooo   .             ",
"                                ",
"                                ",
"                                ",
"                                ",
"                                ",
"                                "};
