/* XPM */
static char * btn_rstgood_xpm[] = {
"32 32 8 1",
" 	c #0000FFFFFFFF",
".	c #000000000000",
"X	c #FFFF00000000",
"o	c #FFFFFFFFFFFF",
"O	c #C0C0C0C0C0C0",
"+	c #04040202FCFC",
"@	c #808080808080",
"#	c #040402028484",
"                                ",
"   .                        .   ",
"  .X..                    ..X.  ",
" .XXXX.                  .XXXX. ",
"  .XXXX..       ...    ..XXXX.  ",
"   .XXXXX.      .oO.  .XXXXX.   ",
"    ..XXXX..    .oO...XXXX..    ",
"      .XXXXX.   .oO.XXXXX.      ",
"       ..XXXX.. ...XXXX..       ",
"         .XXXXX..XXXXX.         ",
"          ..XXXXXXXX..          ",
"            .XXXXXX.            ",
"            .XXXXXX.            ",
"   .........XXXXXXXX......      ",
"   ++++++.XXXXX..XXXXX.ooo.     ",
"   ++++..XXXX..o@..XXXX..O.     ",
"   +++.XXXXX.ooooo..XXXXX.      ",
"   +..XXXX..ooooo.oo..XXXX..    ",
"   .XXXXX.ooooooo.OOOO.XXXXX.   ",
"  .XXXX...oooooooo.......XXXX.  ",
" .XXXX.+#.ooooooo.ooooooo.XXXX. ",
"  .X..###.OOooooo.OOOOOOO...X.  ",
"   .#####.@@OOOooo.......   .   ",
"   ######.....@OOoo.oooo.       ",
"   ......     ..@OO.OOOO.       ",
"                ........        ",
"                                ",
"                                ",
"                                ",
"                                ",
"                                ",
"                                "};
