/* XPM */
static char * btn_mini_rstgood_xpm[] = {
"13 13 8 1",
" 	c #FFFF00000000",
".	c #CDCD00000000",
"X	c #0000FFFFFFFF",
"o	c #000000000000",
"O	c #FFFFFFFFFFFF",
"+	c #04040202FCFC",
"@	c #040402028484",
"#	c #C0C0C0C0C0C0",
" .XXXooXXXX. ",
". .XXoOoXX. .",
"X. .XoOoX. .X",
"XX. .oOo. .XX",
"ooo. .O. .ooX",
"++oo. . .OOOo",
"++oOO. .ooooX",
"++oO. . .OOOo",
"+@o. .O. .ooX",
"@+. .OOo. .Oo",
"@. .#OOOo. .X",
". .ooo#OoO. .",
" .oXXXooooo. "};
