/* XPM */
static char * btn_mini_save_xpm[] = {
"13 13 7 1",
" 	c #0000FFFFFFFF",
".	c #505050505050",
"X	c #808080808080",
"o	c #E1E1E1E1E1E1",
"O	c #000000000000",
"+	c #FFFFFFFFFFFF",
"@	c #FFFF00000000",
" ........... ",
".XXooooXXXXXO",
".XXoXooXXXXXO",
".XXoXooXXXXXO",
".XXooooXXXXXO",
".XXXXXXXXXXXO",
".X+++++++++XO",
".X+++++++++XO",
".X+++++++++XO",
".X+++++++++XO",
".X+++++++++XO",
".X@@@@@@@@@XO",
" OOOOOOOOOOO "};
