/* XPM */
static char * btn_rstbkgd_xpm[] = {
"32 32 6 1",
" 	c #0000FFFFFFFF",
".	c #000000000000",
"X	c #FFFF00000000",
"o	c #C0C0C0C0C0C0",
"O	c #0000FFFF0000",
"+	c #00000000C0C0",
"                                ",
"   .                        .   ",
"  .X..                    ..X.  ",
" .XXXX.                  .XXXX. ",
"  .XXXX..       .....  ..XXXX.  ",
"   .XXXXX.      .ooo. .XXXXX.   ",
"    ..XXXX.......ooo..XXXX..    ",
"      .XXXXX.oo..oo.XXXXX.      ",
"      ...XXXX......XXXX..       ",
"      .oo.XXXXX..XXXXX....      ",
"      .ooo..XXXXXXXX..ooo.      ",
"      .ooo...XXXXXX...ooo.      ",
"      .ooo...XXXXXX...ooo.      ",
"      .ooo..XXXXXXXX..ooo...... ",
"      .oo.XXXXX..XXXXX.oo..ooo. ",
"      ...XXXX......XXXX....ooo. ",
"      .XXXXX.oo..oo.XXXXX..ooo. ",
"    ..XXXX.......ooo..XXXX..oo. ",
" ...XXXXX...OOO........XXXXX.o. ",
" ..XXXX.....OOO..OOO..o..XXXX.. ",
" .XXXX.OOO..OOO..OOO......XXXX. ",
" ..X...OOO..OOO..OOO..OOO...X.. ",
" .o.o..OOO..OOO..OOO..OOO...... ",
" ......OOO..OOO..OOO..OOO..OOO. ",
" .OOO..OOO..OOO..OOO..OOO..OOO. ",
" .OOO..OOO..OOO..OOO..OOO..OOO. ",
" .OOO..OOO..OOO..OOO..OOO..OOO. ",
" .OOO..OOO..OOO..OOO..OOO..OOO. ",
" .OOO..OOO..OOO..OOO..OOO..OOO. ",
"+..............................+",
"                                ",
"                                "};
