/* XPM */
static char * btn_print_xpm[] = {
"32 32 8 1",
" 	c #0000FFFFFFFF",
".	c #808080808080",
"X	c #FFFFFFFFFFFF",
"o	c #00000000FFFF",
"O	c #C0C0C0C0C0C0",
"+	c #000000000000",
"@	c #0000FFFF0000",
"#	c #FFFF00000000",
"                                ",
"                   ...          ",
"                  .XXX..        ",
"                 .XXXXXX..      ",
"                .XXooXXXXX..    ",
"               .XXXXXooXXO++    ",
"              .XXooXXXXXO+      ",
"            ...XXXXooXXO+       ",
"          ..X.XXooXXXXO+        ",
"        ..XOO.XXXXooXO+         ",
"      ..XOO..XXooXXXX+...       ",
"    ..XOO...++XXXooXO+.OO..     ",
"  ..XOO....OOO++XXXX+OO..OO.+   ",
"..XOO..OO..OOOOO++XO+..OO...+   ",
".XX..OO@@OO..OOOOO+..OO.....+.  ",
".XO.XXOOO##OO..OO..OO.......+O..",
".XO.OOXXOOOOOOO..OO.........+O.+",
".XO.OOOOXXOOO..OO...........+.+ ",
".XO.OOOOOOX..OO.............++  ",
".XO.OOOOOOO.X..............++   ",
"..O.OOOOOOO.O............+++    ",
" ...OOOOOOO.O..........++..+    ",
" .OO..OOOOO.O........++....+    ",
" +OOOO..OOO.O......++....++     ",
"  ++OOOO..O.O....++....++       ",
"    ++OOOO..O..++....++         ",
"      ++OOOO.++....++           ",
"        ++OOO....++             ",
"          ++O..++               ",
"            +++                 ",
"                                ",
"                                "};
