/* XPM */
static char * btn_mini_setgood_xpm[] = {
"13 13 6 1",
" 	c #0000FFFFFFFF",
".	c #000000000000",
"X	c #FFFFFFFFFFFF",
"o	c #04040202FCFC",
"O	c #040402028484",
"+	c #C0C0C0C0C0C0",
"     ..      ",
"     .X.     ",
"     .X.     ",
"     .X.     ",
"... .XX..... ",
"oo...XXX.XXX.",
"oo.XXXXX.... ",
"oo.XXXX.XXXX.",
"oO.XXXXX.... ",
"Oo.XXXX.XXXX.",
"OO.++XXX.... ",
"OO....+X.XX. ",
"...   .....  "};
