/* XPM */
static char * btn_help_xpm[] = {
"21 32 6 1",
" 	c #0000FFFFFFFF",
".	c #000000000000",
"X	c #FFFFFFFF0000",
"o	c #C0C0C0C0C0C0",
"O	c #FFFFFFFFFFFF",
"+	c #808080800000",
"       .......       ",
"     ..XXXXXXo..     ",
"   ..XXOOOOOXXXo..   ",
"  .XXOOOXXXXXXXXo+.  ",
" .XXOOXXXXXXXXXXXo+. ",
" .XOOXXo+++++oXXXXo. ",
".XOOXXo+.....+oXXXX+.",
".XOOXo+.     .+XXXX+.",
".XXXX+.       .XXXX+.",
".oXXo+.       .XXXX+.",
" .+++.        .XXXX+.",
"  ...         .XXXX+.",
"            ..XXXXo+.",
"          ..XXXXXX+. ",
"         .XXOXXXX++. ",
"        .XXOXXXo++.  ",
"       .XOOXXo++..   ",
"       .XOXXo+..     ",
"      .XOOXo+.       ",
"      .XOOX+.        ",
"      .XXXX+.        ",
"      .oXXo+.        ",
"       .+++.         ",
"        ...          ",
"                     ",
"        ...          ",
"       .XXo.         ",
"      .XOOX+.        ",
"      .XOOX+.        ",
"      .oXXo+.        ",
"       .+++.         ",
"        ...          "};
