/* XPM */
static char * btn_getbkgd_xpm[] = {
"32 32 5 1",
" 	c #0000FFFFFFFF",
".	c #000000000000",
"X	c #C0C0C0C0C0C0",
"o	c #0000FFFF0000",
"O	c #00000000FFFF",
"                                ",
"                                ",
"                                ",
"                                ",
"                .....           ",
"                .XXX.           ",
"           ......XXX.           ",
"           .XXX..XXX.           ",
"      ......XXX..XXX.           ",
"      .XXX..XXX..XXX......      ",
"      .XXX..XXX..XXX..XXX.      ",
"      .XXX..XXX..XXX..XXX.      ",
"      .XXX..XXX..XXX..XXX.      ",
"      .XXX..XXX..XXX..XXX...... ",
"      .XXX..XXX..XXX..XXX..XXX. ",
"      .XXX..XXX..XXX..XXX..XXX. ",
"      .XXX..XXX..XXX..XXX..XXX. ",
"      .XXX.......XXX..XXX..XXX. ",
" ......XXX..ooo.......XXX..XXX. ",
" .XXX.......ooo..ooo..XXX..XXX. ",
" .XXX..ooo..ooo..ooo.......XXX. ",
" .XXX..ooo..ooo..ooo..ooo..XXX. ",
" .XXX..ooo..ooo..ooo..ooo...... ",
" ......ooo..ooo..ooo..ooo..ooo. ",
" .ooo..ooo..ooo..ooo..ooo..ooo. ",
" .ooo..ooo..ooo..ooo..ooo..ooo. ",
" .ooo..ooo..ooo..ooo..ooo..ooo. ",
" .ooo..ooo..ooo..ooo..ooo..ooo. ",
" .ooo..ooo..ooo..ooo..ooo..ooo. ",
"O..............................O",
"                                ",
"                                "};
