/* XPM */
static char * cx_starter_xpm[] = {
"32 32 6 1",
" 	c none",
".	c #000000000000",
"X	c #FFFFFFFFFFFF",
"o	c #DBDBDBDBDBDB",
"O	c #A7A7A7A7A7A7",
"+	c #6363B8B8FFFF",
"                                ",
"                     .......... ",
"                      .XXXXXXX. ",
"                       .XooooO. ",
"                        .XoooO. ",
"          ........     .XooooO. ",
"        ..XXXXXXXX..  .XoooOoO. ",
"      ..XXooooooooXX..XoooO.OO. ",
"     .XXooooooooooooXX.ooO. .O. ",
"    .XoooooOOOOOOoooooX.O.   .. ",
"   .XooooOO......OOooooO.     . ",
"   .XoooO..++++++..OoooO.       ",
"  .XoooO.+++.++.+++.XoooO.      ",
"  .XooO.+.++++++++.+.XooO.      ",
" .XoooO.+++++++...++.XoooO.     ",
" .XooO.+++++++++..+++.XooO.     ",
" .XooO.+.++++++.+.+.+.XooO.     ",
" .XooO.+++++++.++++++.XooO.     ",
" .XooO.++++++.+++++++.XooO.     ",
" .XooO.+.++++++++++.+.XooO.     ",
" .XooO.++++++++++++++.XooO.     ",
" .XoooO.++++++++++++.XoooO.     ",
"  .XooO.+.++++++++.+.XooO.      ",
"  .XoooO.++++++++++.XoooO.      ",
"   .XoooX..++++++..XoooO.       ",
"   .XooooXX......XXooooO.       ",
"    .XoooooXXXXXXoooooO.        ",
"     .OOooooooooooooOO.         ",
"      ..OOooooooooOO..          ",
"        ..OOOOOOOO..            ",
"          ........              ",
"                                "};
