/* XPM */
static char * btn_mini_help_xpm[] = {
"13 13 6 1",
"       c #0000FFFFFFFF",
".      c #000000000000",
"X      c #FFFFFFFF0000",
"o      c #C0C0C0C0C0C0",
"O      c #FFFFFFFFFFFF",
"+      c #808080800000",
"   .......   ",
" ..XXXXXXX.. ",
".XXXXXXXXXXX.",
".XXX.....XXX.",
".XX.     .XX.",
" ..     .XXX.",
"     ..XXXX. ",
"    .XXXX.   ",
"    .XXX.    ",
"     ...     ",
"    .XXX.    ",
"    .XXX.    ",
"     ...     "};
