/* XPM */
static char * btn_setgood_xpm[] = {
"32 32 7 1",
" 	c #0000FFFFFFFF",
".	c #000000000000",
"X	c #FFFFFFFFFFFF",
"o	c #C0C0C0C0C0C0",
"O	c #808080808080",
"+	c #04040202FCFC",
"@	c #040402028484",
"                                ",
"                                ",
"                                ",
"                                ",
"                ...             ",
"                .Xo.            ",
"                .Xo.            ",
"                .Xo.            ",
"                .Xo.            ",
"               .XXo.            ",
"               .Xo.             ",
"              .XXo.             ",
"              .XXo.             ",
"   .......   .XXXXO.......      ",
"   ++++++....XXXXO.XXXXXXX.     ",
"   ++++++.XXXXXXOX.ooooooo.     ",
"   ++++++.XXXXXXXX........      ",
"   ++++++.XXXXXXX.XXXXXXXX.     ",
"   ++++++.XXXXXXX.oooooooo.     ",
"   @+@+@+.XXXXXXXX........      ",
"   +@+@+@.XXXXXXX.XXXXXXX.      ",
"   @@@@@@.ooXXXXX.ooooooo.      ",
"   @@@@@@.OOoooXXX.......       ",
"   @@@@@@.....OooXX.XXXX.       ",
"   ......     ..Ooo.oooo.       ",
"                ........        ",
"                                ",
"                                ",
"                                ",
"                                ",
"                                ",
"                                "};
