/* XPM */
static char * btn_mini_quit_xpm[] = {
"13 13 9 1",
"       c #0000FFFFFFFF",
".      c #808080808080",
"X      c #000000000000",
"o      c #FFFFFFFFFFFF",
"O      c #C0C0C0C0C0C0",
"+      c #FFFFD3D39C9C",
"@      c #8C8C73735555",
"#      c #FFFFFFFF0000",
"$      c #818181818181",
"  ........X  ",
"  .oooooooXO ",
"  .o@@@@@.XO ",
"  .o@@@@@OXO ",
"  .o@@@@@OXO ",
"  .o@@@@@.XO ",
"  .oOO@@@.XO ",
"  .o@@@@@.XO ",
"  .o@@@@@OXO ",
"  .o@@@@@OXO ",
"  .o@@@@@.XO ",
"XXXXXXXXXXXXX",
"  $$  $$  $$ "};
