/* XPM */
static char * btn_save_xpm[] = {
"32 32 9 1",
" 	c #0000FFFFFFFF",
".	c #505050505050",
"X	c #808080808080",
"o	c #000000000000",
"O	c #E1E1E1E1E1E1",
"+	c #C1C1C1C1C1C1",
"@	c #FFFFFFFFFFFF",
"#	c #C0C0C0C0C0C0",
"$	c #FFFF00000000",
" .............................  ",
".XXX.XXXoOOOOOOOOOOOO+XXXXXXXXo ",
".XXX.XXXoOOOOOO...+OO+XXXXXXXXo ",
".XXX.XXXoOOOOOO.XX+OO+XXXXXXXXo ",
".XXX.XXXoOOOOOO.XX+OO+XXXXXXXXo ",
".XXX.XXXoOOOOOO.XX+OO+XXXXXXXXo ",
".XXX.XXXoOOOOOO.XX+OO+XXXXXXXXo ",
".XXX.XXXoOOOOOO.XX+OO+XXXXXXXXo ",
".XXX.XXXoOOOOOO++++OO+XXXXXXXXo ",
".XXX..XXoOOOOOOOOOOOO+XXXXXXXXo ",
".XXXX+++++++++++++++++XXXXXXXXo ",
".XXXXXXXXXXXXXXXXXXXXXXXXXXXXXo ",
".XXXXXXXXXXXXXXXXXXXXXXXXXXXXXo ",
".XXXXXXXXXXXXXXXXXXXXXXXXXXXXXo ",
".XXX......................+XXXo ",
".XXX.@@@@@@@@@@@@@@@@@@@@@+XXXo ",
".XXX.@@@@@@@@@@@@@@@@@@@@@+XXXo ",
".XXX.@@@@@@@@@@@@@@@@@@@@@+XXXo ",
".XXX.@@@@@@@@@@@@@@@@@@@@@+XXXo ",
".XXX.@@@@@@@@@@@@@@@@@@@@@+XXXo ",
".XXX.@@@@@@@@@@@@@@@@@@@@@+XXXo ",
".XXX.@@@@@@@@@@@@@@@@@@@@@+XXXo ",
".XXX.@@@@@@@@@@@@@@@@@@@@@+XXXo ",
".XXX.@@@@@@@@@@@@########@+XXXo ",
".XXX.@@@@@@@@@@@@@@@@@@@@@+XXXo ",
".XXX.@@@@@@@@############@+XXXo ",
".XoX.@@@@@@@@@@@@@@@@@@@@@+XXXo ",
".XoX.@@@@@@@@@@@@@@@@@@@@@+XXXo ",
".XXX.$$$$$$$$$$$$$$$$$$$$$+XXXo ",
".XXX.$$$$$$$$$$$$$$$$$$$$$+XXXo ",
" ooooooooooooooooooooooooooooo  ",
"                                "};
