/* XPM */
static char * btn_pause_xpm[] = {
"32 32 4 1",
" 	c #0000FFFFFFFF",
".	c #A7A7A7A7A7A7",
"X	c #000000000000",
"o	c #F7F7F7F7F7F7",
"                                ",
"                                ",
"                                ",
"                                ",
"                                ",
"                                ",
"                                ",
"     .........    .........     ",
"     .XXXXXXXo    .XXXXXXXo     ",
"     .XXXXXXXo    .XXXXXXXo     ",
"     .XXXXXXXo    .XXXXXXXo     ",
"     .XXXXXXXo    .XXXXXXXo     ",
"     .XXXXXXXo    .XXXXXXXo     ",
"     .XXXXXXXo    .XXXXXXXo     ",
"     .XXXXXXXo    .XXXXXXXo     ",
"     .XXXXXXXo    .XXXXXXXo     ",
"     .XXXXXXXo    .XXXXXXXo     ",
"     .XXXXXXXo    .XXXXXXXo     ",
"     .XXXXXXXo    .XXXXXXXo     ",
"     .XXXXXXXo    .XXXXXXXo     ",
"     .XXXXXXXo    .XXXXXXXo     ",
"     .XXXXXXXo    .XXXXXXXo     ",
"     .XXXXXXXo    .XXXXXXXo     ",
"     .XXXXXXXo    .XXXXXXXo     ",
"     .oooooooo    .oooooooo     ",
"                                ",
"                                ",
"                                ",
"                                ",
"                                ",
"                                ",
"                                "};
