/* XPM */
static char * btn_mini_open_xpm[] = {
"13 13 7 1",
"       c #0000FFFFFFFF",
".      c #808080808080",
"X      c #FFFFFFFFFFFF",
"o      c #FFFFFFFF0000",
"O      c #C0C0C0C0C0C0",
"+      c #000000000000",
"@      c #808080800000",
"             ",
"    ...      ",
"   .oOo..... ",
"   .OoOoOoOo+",
" ..OOOOOOoOo+",
".XXXXXXXX+oO+",
".OoOoOoOo.+o+",
" .OoOoOoOo@++",
" .oOoOoOoO@++",
"  .oOoOoOoO@+",
"  .@@@@@@@@@+",
"   +++++++++ ",
"             "};
