/* XPM */
static char * btn_mini_start_xpm[] = {
"13 13 3 1",
" 	c #0000FFFFFFFF",
".	c #505050505050",
"X	c #000000000000",
"             ",
" ..          ",
" .X..        ",
" .XXX..      ",
" .XXXXX..    ",
" .XXXXXXX..  ",
" .XXXXXXXXX. ",
" .XXXXXXXXX  ",
" .XXXXXXX    ",
" .XXXXX      ",
" .XXX        ",
" .X          ",
"             "};
