/* XPM */
static char * btn_quit_xpm[] = {
"32 32 9 1",
" 	c #0000FFFFFFFF",
".	c #808080808080",
"X	c #000000000000",
"o	c #FFFFFFFFFFFF",
"O	c #C0C0C0C0C0C0",
"+	c #FFFFD3D39C9C",
"@	c #8C8C73735555",
"#	c #FFFFFFFF0000",
"$	c #818181818181",
"                                ",
"      .................X        ",
"      .ooooooooooooooooXO       ",
"      .oXXXXXXXXXXXXXXoXO       ",
"      .oX++++++++++++XOXO       ",
"      .oX+@@@@@@@@@@@XOXO       ",
"      .oX+@@@@@@@@@@@XOXO       ",
"      .oX+@@@@@@@@@@@OXXO       ",
"      .oX+@@@@@@@@@@@OXXO       ",
"      .oX+@@@@@@@@@@@OXXO       ",
"      .oX+@@@@@@@@@@@XXXO       ",
"      .oX+@@@@@@@@@@@XOXO       ",
"      .oX+@@@@@@@@@@@XOXO       ",
"      .oX+@X@@@@@@@@@XOXO       ",
"      .oX+X#X@@@@@@@@XOXO       ",
"      .oX+@X@@@@@@@@@XOXO       ",
"      .oX+@@@@@@@@@@@XOXO       ",
"      .oX+@@@@@@@@@@@XOXO       ",
"      .oX+@@@@@@@@@@@XOXO       ",
"      .oX+@@@@@@@@@@@OXXO       ",
"      .oX+@@@@@@@@@@@OXXO       ",
"      .oX+@@@@@@@@@@@OXXO       ",
"      .oX+@@@@@@@@@@@XXXO       ",
"      .oX+@@@@@@@@@@@XOXO       ",
"      .oX+@@@@@@@@@@@XOXO       ",
"XXXXXXXXXXXXXXXXXXXXXXXXXXXXXXX ",
"$   $$   $$   $$   $$   $$   $$ ",
"  $$   $$   $$   $$   $$   $$   ",
"$$   $$   $$   $$   $$   $$     ",
"   $$   $$   $$   $$   $$       ",
"      $$   $$   $$   $$         ",
"                                "};
