/* XPM */
static char * btn_mini_pause_xpm[] = {
"13 13 4 1",
" 	c #0000FFFFFFFF",
".	c #505050505050",
"X	c #000000000000",
"o      c #F7F7F7F7F7F7",
"             ",
"  .... ....  ",
"  .XXo .XXo  ",
"  .XXo .XXo  ",
"  .XXo .XXo  ",
"  .XXo .XXo  ",
"  .XXo .XXo  ",
"  .XXo .XXo  ",
"  .XXo .XXo  ",
"  .XXo .XXo  ",
"  .XXo .XXo  ",
"  .ooo .ooo  ",
"             "};
