/* XPM */
static char * btn_start_xpm[] = {
"32 32 4 1",
" 	c #0000FFFFFFFF",
".	c #A7A7A7A7A7A7",
"X	c #000000000000",
"o	c #F7F7F7F7F7F7",
"                                ",
"                                ",
"                                ",
"                                ",
"                                ",
"                                ",
"      ..                        ",
"      .X..                      ",
"      .XXX..                    ",
"      .XXXXX..                  ",
"      .XXXXXXX..                ",
"      .XXXXXXXXX..              ",
"      .XXXXXXXXXXX..            ",
"      .XXXXXXXXXXXXX..          ",
"      .XXXXXXXXXXXXXXX..        ",
"      .XXXXXXXXXXXXXXXXX..      ",
"      .XXXXXXXXXXXXXXXXXoo      ",
"      .XXXXXXXXXXXXXXXoo        ",
"      .XXXXXXXXXXXXXoo          ",
"      .XXXXXXXXXXXoo            ",
"      .XXXXXXXXXoo              ",
"      .XXXXXXXoo                ",
"      .XXXXXoo                  ",
"      .XXXoo                    ",
"      .Xoo                      ",
"      .o                        ",
"                                ",
"                                ",
"                                ",
"                                ",
"                                ",
"                                "};
