/* XPM */
static char * btn_log_xpm[] = {
"32 32 8 1",
" 	c #0000FFFFFFFF",
".	c #808080808080",
"X	c #FFFFFFFFFFFF",
"o	c #000000000000",
"O	c #00000000FFFF",
"+	c #C0C0C0C0C0C0",
"@	c #818181810000",
"#	c #000000008080",
" ....................           ",
" .XXXXXXXXXXXXXXXXXX.o          ",
" .XXXXXXXXXXXXXXXXXX..o         ",
" .XXOOOOOOOOOOOOOOOX.+.o        ",
" .XXXXXXXXXXXXXXXXXX.X+.o       ",
" .XXXXXXXXXXXXXXXXXX.XX+.o      ",
" .XXOOOOOOOOOOOOOOOX.oooooo     ",
" .XXXXXXXXXXXXXXXXXXXXXXX+o     ",
" .XXXXXXXXXXXXXXXXXXXXXXX+o     ",
" .XXOOOOOOOOOOOOOOOOOOOXX+o     ",
" .XXXXXXXXXXXXXXXXXXXXXXX+o     ",
" .XXXXXXXXXXXXXXXXXXXXXXX+o     ",
" .XXOOOOOOOOOOOOOOOOOOOXX+o     ",
" .XXXXXXXXXXXXXXXXXXXXXXX+o     ",
" .XXXXXXXXXXXXXXXXXXXXXXX+o     ",
" .XXOOOOOOOOOO@@#XXXXXXXX+o     ",
" .XXXXXXXXOOO@@@###XXXXXX+o     ",
" .XXXXXXXXXOO@@OO####XXXX+o     ",
" .XXXXXXXXXX@@@OOOO####XX+o     ",
" .XXXXXXXXXX@@#OOOOOO####+o     ",
" .XXXXXXXXXXX@###OOOOOO####     ",
" .XXXXXXXXXXXX#####OOOOOO####   ",
" .XXXXXXXXXXXXXX#####OOOOOO#### ",
" .XXXXXXXXXXXXXXXX#####OOOOOO#  ",
" .XXXXXXXXXXXXXXXXXX#####OOOOO  ",
" .XXXXXXXXXXXXXXXXXXXX#####OO   ",
" .XXXXXXXXXXXXXXXXXXXXXX#####   ",
" .XXXXXXXXXXXXXXXXXXXXXXX+##    ",
" .XXXXXXXXXXXXXXXXXXXXXXX+o     ",
" .XXXXXXXXXXXXXXXXXXXXXXX+o     ",
" .++++++++++++++++++++++++o     ",
" oooooooooooooooooooooooooo     "};
