/* XPM */
static char * btn_mini_once_xpm[] = {
"13 13 3 1",
" 	c #0000FFFFFFFF",
".	c #505050505050",
"X	c #000000000000",
"             ",
"  ...  .     ",
"  .XX  ..    ",
"  .XX  .X.   ",
"  .XX  .XX.  ",
"  .XX  .XXX. ",
"  .XX  .XXXX.",
"  .XX  .XXXX ",
"  .XX  .XXX  ",
"  .XX  .XX   ",
"  .XX  .X    ",
"  .XX  .     ",
"             "};
